<svg xmlns="http://www.w3.org/2000/svg" xmlns:xlink="http://www.w3.org/1999/xlink" width="220" zoomAndPan="magnify" viewBox="0 0 165 36.000001" height="48" preserveAspectRatio="xMidYMid meet" version="1.0"><defs><g/></defs><g fill="#ffffff" fill-opacity="1"><g transform="translate(11.519942, 23.886522)"><g><path d="M -0.453125 -0.34375 L 1.375 -1.03125 L 7.703125 -16.328125 L 8.390625 -16.328125 L 14.953125 -0.6875 L 16.09375 -0.34375 L 16.09375 0 L 13.34375 0 C 12.539062 0 11.882812 -0.175781 11.375 -0.53125 C 10.875 -0.894531 10.503906 -1.367188 10.265625 -1.953125 L 9.078125 -4.71875 L 3.59375 -4.71875 L 2.0625 -1.03125 L 3.796875 -0.34375 L 3.796875 0 L -0.453125 0 Z M 3.8125 -5.296875 L 8.859375 -5.296875 L 6.328125 -11.34375 Z M 3.8125 -5.296875 "/></g></g></g><g fill="#ffffff" fill-opacity="1"><g transform="translate(27.15849, 23.886522)"><g><path d="M 0.921875 -0.34375 L 2.296875 -0.6875 L 2.296875 -15.40625 L 0.921875 -15.75 L 0.921875 -16.09375 L 3.90625 -16.09375 C 5.289062 -16.09375 5.984375 -15.40625 5.984375 -14.03125 L 5.984375 -10.34375 C 6.210938 -10.65625 6.445312 -10.90625 6.6875 -11.09375 C 7.351562 -11.59375 8.113281 -11.84375 8.96875 -11.84375 C 9.832031 -11.84375 10.601562 -11.660156 11.28125 -11.296875 C 11.96875 -10.941406 12.5 -10.472656 12.875 -9.890625 C 13.257812 -9.304688 13.453125 -8.691406 13.453125 -8.046875 L 13.453125 -0.6875 L 14.828125 -0.34375 L 14.828125 0 L 11.84375 0 C 10.46875 0 9.78125 -0.6875 9.78125 -2.0625 L 9.78125 -8.046875 C 9.78125 -9.015625 9.601562 -9.753906 9.25 -10.265625 C 8.90625 -10.785156 8.503906 -11.046875 8.046875 -11.046875 C 7.460938 -11.046875 6.941406 -10.738281 6.484375 -10.125 C 6.285156 -9.863281 6.117188 -9.554688 5.984375 -9.203125 L 5.984375 -0.6875 L 7.359375 -0.34375 L 7.359375 0 L 0.921875 0 Z M 0.921875 -0.34375 "/></g></g></g><g fill="#ffffff" fill-opacity="1"><g transform="translate(42.452071, 23.886522)"><g><path d="M 0.921875 -0.34375 L 2.296875 -0.6875 L 2.296875 -10.8125 L 0.921875 -11.15625 L 0.921875 -11.5 L 2.984375 -11.5 C 3.890625 -11.5 4.601562 -11.207031 5.125 -10.625 C 5.320312 -10.394531 5.492188 -10.113281 5.640625 -9.78125 C 5.867188 -10.207031 6.113281 -10.550781 6.375 -10.8125 C 7.0625 -11.5 7.847656 -11.84375 8.734375 -11.84375 C 9.628906 -11.84375 10.410156 -11.644531 11.078125 -11.25 C 11.753906 -10.863281 12.28125 -10.332031 12.65625 -9.65625 C 12.882812 -10.101562 13.128906 -10.460938 13.390625 -10.734375 C 14.085938 -11.472656 14.875 -11.84375 15.75 -11.84375 C 16.5625 -11.84375 17.289062 -11.671875 17.9375 -11.328125 C 18.59375 -10.992188 19.101562 -10.535156 19.46875 -9.953125 C 19.832031 -9.367188 20.015625 -8.734375 20.015625 -8.046875 L 20.015625 -0.6875 L 21.390625 -0.34375 L 21.390625 0 L 18.40625 0 C 17.019531 0 16.328125 -0.6875 16.328125 -2.0625 L 16.328125 -8.046875 C 16.328125 -9.046875 16.171875 -9.796875 15.859375 -10.296875 C 15.554688 -10.796875 15.210938 -11.046875 14.828125 -11.046875 C 14.390625 -11.046875 13.941406 -10.738281 13.484375 -10.125 C 13.296875 -9.832031 13.132812 -9.523438 13 -9.203125 L 13 -0.6875 L 14.375 -0.34375 L 14.375 0 L 7.9375 0 L 7.9375 -0.34375 L 9.3125 -0.6875 L 9.3125 -8.046875 C 9.3125 -9.046875 9.15625 -9.796875 8.84375 -10.296875 C 8.539062 -10.796875 8.195312 -11.046875 7.8125 -11.046875 C 7.375 -11.046875 6.925781 -10.738281 6.46875 -10.125 C 6.28125 -9.832031 6.117188 -9.523438 5.984375 -9.203125 L 5.984375 -0.6875 L 7.359375 -0.34375 L 7.359375 0 L 0.921875 0 Z M 0.921875 -0.34375 "/></g></g></g><g fill="#ffffff" fill-opacity="1"><g transform="translate(64.300046, 23.886522)"><g><path d="M 7.125 0.34375 C 5.164062 0.34375 3.640625 -0.191406 2.546875 -1.265625 C 1.460938 -2.347656 0.921875 -3.84375 0.921875 -5.75 C 0.921875 -6.988281 1.15625 -8.066406 1.625 -8.984375 C 2.101562 -9.910156 2.769531 -10.617188 3.625 -11.109375 C 4.476562 -11.597656 5.457031 -11.84375 6.5625 -11.84375 C 7.664062 -11.84375 8.632812 -11.632812 9.46875 -11.21875 C 10.300781 -10.8125 10.941406 -10.257812 11.390625 -9.5625 C 11.847656 -8.863281 12.078125 -8.09375 12.078125 -7.25 C 12.078125 -6.863281 12.035156 -6.53125 11.953125 -6.25 L 11.84375 -5.859375 C 11.1875 -5.722656 10.472656 -5.609375 9.703125 -5.515625 C 8.097656 -5.285156 6.472656 -5.171875 4.828125 -5.171875 C 4.828125 -3.390625 5.070312 -2.117188 5.5625 -1.359375 C 6.050781 -0.609375 6.726562 -0.234375 7.59375 -0.234375 C 8.1875 -0.234375 8.738281 -0.375 9.25 -0.65625 C 9.769531 -0.9375 10.175781 -1.3125 10.46875 -1.78125 C 10.769531 -2.25 10.921875 -2.726562 10.921875 -3.21875 L 11.5 -3.21875 C 11.5 -2.601562 11.3125 -2.019531 10.9375 -1.46875 C 10.570312 -0.914062 10.0625 -0.472656 9.40625 -0.140625 C 8.75 0.179688 7.988281 0.34375 7.125 0.34375 Z M 4.828125 -5.75 C 5.804688 -5.75 6.601562 -5.785156 7.21875 -5.859375 C 7.476562 -5.878906 7.753906 -5.921875 8.046875 -5.984375 C 8.066406 -6.054688 8.109375 -6.222656 8.171875 -6.484375 C 8.242188 -6.867188 8.28125 -7.273438 8.28125 -7.703125 C 8.28125 -8.972656 8.109375 -9.90625 7.765625 -10.5 C 7.429688 -11.09375 7.03125 -11.390625 6.5625 -11.390625 C 5.40625 -11.390625 4.828125 -9.507812 4.828125 -5.75 Z M 4.828125 -5.75 "/></g></g></g><g fill="#ffffff" fill-opacity="1"><g transform="translate(77.178859, 23.886522)"><g><path d="M 5.640625 0.34375 C 4.734375 0.34375 3.925781 0.109375 3.21875 -0.359375 C 2.507812 -0.828125 1.945312 -1.515625 1.53125 -2.421875 C 1.125 -3.335938 0.921875 -4.445312 0.921875 -5.75 C 0.921875 -7.707031 1.375 -9.210938 2.28125 -10.265625 C 3.195312 -11.316406 4.429688 -11.84375 5.984375 -11.84375 C 6.710938 -11.84375 7.351562 -11.691406 7.90625 -11.390625 C 8.132812 -11.273438 8.375 -11.117188 8.625 -10.921875 L 8.625 -15.40625 L 7.25 -15.75 L 7.25 -16.09375 L 10.234375 -16.09375 C 11.617188 -16.09375 12.3125 -15.40625 12.3125 -14.03125 L 12.3125 -0.6875 L 13.6875 -0.34375 L 13.6875 0 L 11.609375 0 C 10.691406 0 9.976562 -0.28125 9.46875 -0.84375 C 9.257812 -1.082031 9.09375 -1.375 8.96875 -1.71875 C 8.769531 -1.34375 8.519531 -1 8.21875 -0.6875 C 7.519531 0 6.660156 0.34375 5.640625 0.34375 Z M 6.5625 -0.453125 C 7.125 -0.453125 7.632812 -0.757812 8.09375 -1.375 C 8.257812 -1.601562 8.4375 -1.910156 8.625 -2.296875 L 8.625 -10.234375 C 8.457031 -10.398438 8.28125 -10.550781 8.09375 -10.6875 C 7.675781 -11 7.28125 -11.15625 6.90625 -11.15625 C 6.238281 -11.15625 5.722656 -10.769531 5.359375 -10 C 5.003906 -9.238281 4.828125 -7.820312 4.828125 -5.75 C 4.828125 -3.769531 4.988281 -2.390625 5.3125 -1.609375 C 5.644531 -0.835938 6.0625 -0.453125 6.5625 -0.453125 Z M 6.5625 -0.453125 "/></g></g></g><g fill="#ffffff" fill-opacity="1"><g transform="translate(92.386538, 25.063788)"><g><path d="M 5.125 -15.078125 C 5.5 -15.128906 5.875 -15.128906 6.25 -15.078125 C 6.5625 -15.046875 6.851562 -14.957031 7.125 -14.8125 C 7.394531 -14.664062 7.597656 -14.492188 7.734375 -14.296875 C 7.867188 -14.097656 7.929688 -13.882812 7.921875 -13.65625 C 7.921875 -13.4375 7.828125 -13.238281 7.640625 -13.0625 L 7.34375 -12.78125 L 7.28125 -13.078125 C 7.21875 -13.335938 7.125 -13.503906 7 -13.578125 C 6.875 -13.648438 6.625 -13.675781 6.25 -13.65625 C 5.96875 -13.65625 5.742188 -13.640625 5.578125 -13.609375 C 5.410156 -13.578125 5.21875 -13.507812 5 -13.40625 C 4.675781 -13.269531 4.378906 -13.082031 4.109375 -12.84375 C 3.835938 -12.601562 3.640625 -12.363281 3.515625 -12.125 C 3.421875 -11.90625 3.367188 -11.597656 3.359375 -11.203125 C 3.347656 -10.816406 3.390625 -10.539062 3.484375 -10.375 C 3.671875 -10.019531 4.300781 -9.628906 5.375 -9.203125 C 6.488281 -8.753906 7.28125 -8.253906 7.75 -7.703125 C 8.226562 -7.160156 8.476562 -6.46875 8.5 -5.625 C 8.507812 -5.269531 8.5 -5.023438 8.46875 -4.890625 C 8.4375 -4.765625 8.351562 -4.566406 8.21875 -4.296875 C 7.894531 -3.679688 7.363281 -3.171875 6.625 -2.765625 C 5.894531 -2.359375 5.101562 -2.15625 4.25 -2.15625 C 3.664062 -2.15625 3.113281 -2.273438 2.59375 -2.515625 C 2.070312 -2.765625 1.71875 -3.066406 1.53125 -3.421875 C 1.457031 -3.578125 1.410156 -3.679688 1.390625 -3.734375 C 1.378906 -3.796875 1.40625 -3.867188 1.46875 -3.953125 C 1.5 -4.015625 1.539062 -4.03125 1.59375 -4 C 1.644531 -3.976562 1.738281 -3.914062 1.875 -3.8125 C 2.382812 -3.445312 3.03125 -3.3125 3.8125 -3.40625 C 4.601562 -3.507812 5.316406 -3.832031 5.953125 -4.375 C 6.585938 -4.925781 6.875 -5.503906 6.8125 -6.109375 C 6.800781 -6.515625 6.628906 -6.84375 6.296875 -7.09375 C 5.972656 -7.351562 5.335938 -7.644531 4.390625 -7.96875 C 3.492188 -8.269531 2.820312 -8.566406 2.375 -8.859375 C 1.9375 -9.160156 1.613281 -9.535156 1.40625 -9.984375 C 1.226562 -10.347656 1.132812 -10.726562 1.125 -11.125 C 1.113281 -11.53125 1.164062 -11.90625 1.28125 -12.25 C 1.394531 -12.601562 1.566406 -12.941406 1.796875 -13.265625 C 2.035156 -13.597656 2.316406 -13.890625 2.640625 -14.140625 C 2.972656 -14.398438 3.351562 -14.609375 3.78125 -14.765625 C 4.21875 -14.929688 4.664062 -15.035156 5.125 -15.078125 Z M 5.125 -15.078125 "/></g></g></g><g fill="#ffffff" fill-opacity="1"><g transform="translate(101.980598, 25.063788)"><g><path d="M 5.59375 -5.78125 L 5.625 -7 L 5.25 -7 C 4.757812 -6.988281 4.332031 -6.878906 3.96875 -6.671875 C 3.789062 -6.585938 3.585938 -6.410156 3.359375 -6.140625 C 3.140625 -5.867188 3.007812 -5.632812 2.96875 -5.4375 C 2.90625 -5.175781 2.890625 -4.890625 2.921875 -4.578125 C 2.953125 -4.265625 3.019531 -4.054688 3.125 -3.953125 C 3.332031 -3.734375 3.640625 -3.65625 4.046875 -3.71875 C 4.453125 -3.78125 4.847656 -3.960938 5.234375 -4.265625 L 5.59375 -4.5625 Z M 4.109375 -10.765625 C 4.328125 -10.828125 4.734375 -10.847656 5.328125 -10.828125 C 5.796875 -10.816406 6.128906 -10.769531 6.328125 -10.6875 C 6.535156 -10.601562 6.710938 -10.414062 6.859375 -10.125 C 6.953125 -10 7.007812 -9.785156 7.03125 -9.484375 C 7.050781 -9.191406 7.078125 -8.472656 7.109375 -7.328125 C 7.140625 -5.960938 7.1875 -5.066406 7.25 -4.640625 C 7.3125 -4.210938 7.457031 -3.867188 7.6875 -3.609375 C 7.84375 -3.421875 8.007812 -3.328125 8.1875 -3.328125 C 8.300781 -3.328125 8.375 -3.3125 8.40625 -3.28125 C 8.4375 -3.25 8.453125 -3.144531 8.453125 -2.96875 C 8.453125 -2.6875 8.335938 -2.453125 8.109375 -2.265625 C 7.878906 -2.085938 7.625 -2.035156 7.34375 -2.109375 C 7.144531 -2.160156 6.945312 -2.269531 6.75 -2.4375 C 6.550781 -2.601562 6.382812 -2.800781 6.25 -3.03125 L 5.96875 -3.484375 L 5.4375 -3.03125 C 5.050781 -2.726562 4.71875 -2.515625 4.4375 -2.390625 C 4.15625 -2.273438 3.820312 -2.207031 3.4375 -2.1875 C 3.03125 -2.164062 2.691406 -2.195312 2.421875 -2.28125 C 2.148438 -2.363281 1.90625 -2.523438 1.6875 -2.765625 C 1.476562 -3.015625 1.335938 -3.257812 1.265625 -3.5 C 1.203125 -3.75 1.175781 -4.101562 1.1875 -4.5625 C 1.21875 -5.007812 1.285156 -5.390625 1.390625 -5.703125 C 1.503906 -6.015625 1.695312 -6.328125 1.96875 -6.640625 C 2.320312 -7.066406 2.734375 -7.378906 3.203125 -7.578125 C 3.679688 -7.785156 4.242188 -7.898438 4.890625 -7.921875 L 5.640625 -7.921875 L 5.71875 -8.515625 C 5.75 -8.972656 5.78125 -9.269531 5.8125 -9.40625 C 5.84375 -9.601562 5.785156 -9.738281 5.640625 -9.8125 C 5.503906 -9.882812 5.210938 -9.921875 4.765625 -9.921875 C 4.328125 -9.921875 3.898438 -9.863281 3.484375 -9.75 C 3.078125 -9.644531 2.75 -9.515625 2.5 -9.359375 C 2.3125 -9.242188 2.207031 -9.191406 2.1875 -9.203125 C 2.164062 -9.222656 2.203125 -9.320312 2.296875 -9.5 C 2.429688 -9.757812 2.675781 -10.007812 3.03125 -10.25 C 3.382812 -10.5 3.742188 -10.671875 4.109375 -10.765625 Z M 4.109375 -10.765625 "/></g></g></g><g fill="#ffffff" fill-opacity="1"><g transform="translate(111.23037, 25.063788)"><g><path d="M 2.21875 -10.765625 C 2.332031 -10.828125 2.425781 -10.851562 2.5 -10.84375 C 2.570312 -10.832031 2.648438 -10.785156 2.734375 -10.703125 C 2.898438 -10.546875 3 -10.273438 3.03125 -9.890625 C 3.070312 -9.503906 3.101562 -8.460938 3.125 -6.765625 C 3.132812 -5.148438 3.117188 -3.648438 3.078125 -2.265625 C 3.046875 -0.890625 2.972656 -0.00390625 2.859375 0.390625 C 2.753906 0.785156 2.582031 1.097656 2.34375 1.328125 C 2.0625 1.554688 1.742188 1.710938 1.390625 1.796875 C 1.046875 1.878906 0.582031 1.914062 0 1.90625 C -0.65625 1.875 -1.101562 1.789062 -1.34375 1.65625 C -1.582031 1.519531 -1.660156 1.289062 -1.578125 0.96875 C -1.535156 0.800781 -1.390625 0.671875 -1.140625 0.578125 C -0.898438 0.492188 -0.515625 0.429688 0.015625 0.390625 C 0.566406 0.347656 0.941406 0.28125 1.140625 0.1875 C 1.347656 0.09375 1.476562 -0.0664062 1.53125 -0.296875 C 1.59375 -0.453125 1.648438 -2.40625 1.703125 -6.15625 C 1.710938 -7.269531 1.722656 -8.078125 1.734375 -8.578125 C 1.753906 -9.085938 1.785156 -9.515625 1.828125 -9.859375 C 1.878906 -10.210938 1.925781 -10.429688 1.96875 -10.515625 C 2.019531 -10.609375 2.101562 -10.691406 2.21875 -10.765625 Z M 2 -15.125 C 2.207031 -15.25 2.421875 -15.304688 2.640625 -15.296875 C 2.867188 -15.285156 3.050781 -15.210938 3.1875 -15.078125 C 3.320312 -14.921875 3.40625 -14.742188 3.4375 -14.546875 C 3.46875 -14.347656 3.445312 -14.164062 3.375 -14 C 3.3125 -13.84375 3.191406 -13.703125 3.015625 -13.578125 C 2.835938 -13.460938 2.632812 -13.40625 2.40625 -13.40625 C 2.257812 -13.40625 2.09375 -13.484375 1.90625 -13.640625 C 1.71875 -13.804688 1.601562 -13.976562 1.5625 -14.15625 C 1.507812 -14.332031 1.53125 -14.515625 1.625 -14.703125 C 1.71875 -14.890625 1.84375 -15.03125 2 -15.125 Z M 2 -15.125 "/></g></g></g><g fill="#ffffff" fill-opacity="1"><g transform="translate(115.889679, 25.063788)"><g><path d="M 2.21875 -10.765625 C 2.332031 -10.828125 2.425781 -10.851562 2.5 -10.84375 C 2.570312 -10.832031 2.648438 -10.785156 2.734375 -10.703125 C 2.898438 -10.546875 3 -10.273438 3.03125 -9.890625 C 3.070312 -9.503906 3.101562 -8.460938 3.125 -6.765625 C 3.132812 -5.148438 3.117188 -3.648438 3.078125 -2.265625 C 3.046875 -0.890625 2.972656 -0.00390625 2.859375 0.390625 C 2.753906 0.785156 2.582031 1.097656 2.34375 1.328125 C 2.0625 1.554688 1.742188 1.710938 1.390625 1.796875 C 1.046875 1.878906 0.582031 1.914062 0 1.90625 C -0.65625 1.875 -1.101562 1.789062 -1.34375 1.65625 C -1.582031 1.519531 -1.660156 1.289062 -1.578125 0.96875 C -1.535156 0.800781 -1.390625 0.671875 -1.140625 0.578125 C -0.898438 0.492188 -0.515625 0.429688 0.015625 0.390625 C 0.566406 0.347656 0.941406 0.28125 1.140625 0.1875 C 1.347656 0.09375 1.476562 -0.0664062 1.53125 -0.296875 C 1.59375 -0.453125 1.648438 -2.40625 1.703125 -6.15625 C 1.710938 -7.269531 1.722656 -8.078125 1.734375 -8.578125 C 1.753906 -9.085938 1.785156 -9.515625 1.828125 -9.859375 C 1.878906 -10.210938 1.925781 -10.429688 1.96875 -10.515625 C 2.019531 -10.609375 2.101562 -10.691406 2.21875 -10.765625 Z M 2 -15.125 C 2.207031 -15.25 2.421875 -15.304688 2.640625 -15.296875 C 2.867188 -15.285156 3.050781 -15.210938 3.1875 -15.078125 C 3.320312 -14.921875 3.40625 -14.742188 3.4375 -14.546875 C 3.46875 -14.347656 3.445312 -14.164062 3.375 -14 C 3.3125 -13.84375 3.191406 -13.703125 3.015625 -13.578125 C 2.835938 -13.460938 2.632812 -13.40625 2.40625 -13.40625 C 2.257812 -13.40625 2.09375 -13.484375 1.90625 -13.640625 C 1.71875 -13.804688 1.601562 -13.976562 1.5625 -14.15625 C 1.507812 -14.332031 1.53125 -14.515625 1.625 -14.703125 C 1.71875 -14.890625 1.84375 -15.03125 2 -15.125 Z M 2 -15.125 "/></g></g></g><g fill="#ffffff" fill-opacity="1"><g transform="translate(120.548988, 25.063788)"><g><path d="M 5.59375 -5.78125 L 5.625 -7 L 5.25 -7 C 4.757812 -6.988281 4.332031 -6.878906 3.96875 -6.671875 C 3.789062 -6.585938 3.585938 -6.410156 3.359375 -6.140625 C 3.140625 -5.867188 3.007812 -5.632812 2.96875 -5.4375 C 2.90625 -5.175781 2.890625 -4.890625 2.921875 -4.578125 C 2.953125 -4.265625 3.019531 -4.054688 3.125 -3.953125 C 3.332031 -3.734375 3.640625 -3.65625 4.046875 -3.71875 C 4.453125 -3.78125 4.847656 -3.960938 5.234375 -4.265625 L 5.59375 -4.5625 Z M 4.109375 -10.765625 C 4.328125 -10.828125 4.734375 -10.847656 5.328125 -10.828125 C 5.796875 -10.816406 6.128906 -10.769531 6.328125 -10.6875 C 6.535156 -10.601562 6.710938 -10.414062 6.859375 -10.125 C 6.953125 -10 7.007812 -9.785156 7.03125 -9.484375 C 7.050781 -9.191406 7.078125 -8.472656 7.109375 -7.328125 C 7.140625 -5.960938 7.1875 -5.066406 7.25 -4.640625 C 7.3125 -4.210938 7.457031 -3.867188 7.6875 -3.609375 C 7.84375 -3.421875 8.007812 -3.328125 8.1875 -3.328125 C 8.300781 -3.328125 8.375 -3.3125 8.40625 -3.28125 C 8.4375 -3.25 8.453125 -3.144531 8.453125 -2.96875 C 8.453125 -2.6875 8.335938 -2.453125 8.109375 -2.265625 C 7.878906 -2.085938 7.625 -2.035156 7.34375 -2.109375 C 7.144531 -2.160156 6.945312 -2.269531 6.75 -2.4375 C 6.550781 -2.601562 6.382812 -2.800781 6.25 -3.03125 L 5.96875 -3.484375 L 5.4375 -3.03125 C 5.050781 -2.726562 4.71875 -2.515625 4.4375 -2.390625 C 4.15625 -2.273438 3.820312 -2.207031 3.4375 -2.1875 C 3.03125 -2.164062 2.691406 -2.195312 2.421875 -2.28125 C 2.148438 -2.363281 1.90625 -2.523438 1.6875 -2.765625 C 1.476562 -3.015625 1.335938 -3.257812 1.265625 -3.5 C 1.203125 -3.75 1.175781 -4.101562 1.1875 -4.5625 C 1.21875 -5.007812 1.285156 -5.390625 1.390625 -5.703125 C 1.503906 -6.015625 1.695312 -6.328125 1.96875 -6.640625 C 2.320312 -7.066406 2.734375 -7.378906 3.203125 -7.578125 C 3.679688 -7.785156 4.242188 -7.898438 4.890625 -7.921875 L 5.640625 -7.921875 L 5.71875 -8.515625 C 5.75 -8.972656 5.78125 -9.269531 5.8125 -9.40625 C 5.84375 -9.601562 5.785156 -9.738281 5.640625 -9.8125 C 5.503906 -9.882812 5.210938 -9.921875 4.765625 -9.921875 C 4.328125 -9.921875 3.898438 -9.863281 3.484375 -9.75 C 3.078125 -9.644531 2.75 -9.515625 2.5 -9.359375 C 2.3125 -9.242188 2.207031 -9.191406 2.1875 -9.203125 C 2.164062 -9.222656 2.203125 -9.320312 2.296875 -9.5 C 2.429688 -9.757812 2.675781 -10.007812 3.03125 -10.25 C 3.382812 -10.5 3.742188 -10.671875 4.109375 -10.765625 Z M 4.109375 -10.765625 "/></g></g></g><g fill="#ffffff" fill-opacity="1"><g transform="translate(129.79876, 25.063788)"><g><path d="M 6.296875 -9.1875 C 5.984375 -9.320312 5.710938 -9.382812 5.484375 -9.375 C 5.253906 -9.363281 5.019531 -9.289062 4.78125 -9.15625 C 4.488281 -8.988281 4.210938 -8.707031 3.953125 -8.3125 C 3.703125 -7.925781 3.507812 -7.515625 3.375 -7.078125 C 3.25 -6.640625 3.191406 -6.191406 3.203125 -5.734375 C 3.210938 -5.273438 3.304688 -4.894531 3.484375 -4.59375 C 3.628906 -4.363281 3.863281 -4.179688 4.1875 -4.046875 C 4.519531 -3.921875 4.847656 -3.894531 5.171875 -3.96875 C 5.398438 -4.039062 5.664062 -4.15625 5.96875 -4.3125 C 6.269531 -4.46875 6.503906 -4.628906 6.671875 -4.796875 C 6.785156 -4.898438 6.84375 -5.046875 6.84375 -5.234375 C 6.851562 -5.421875 6.84375 -6.007812 6.8125 -7 L 6.75 -8.96875 Z M 7.71875 -15.28125 C 7.832031 -15.4375 7.976562 -15.515625 8.15625 -15.515625 C 8.332031 -15.515625 8.46875 -15.4375 8.5625 -15.28125 C 8.78125 -14.96875 8.828125 -13.859375 8.703125 -11.953125 C 8.617188 -10.773438 8.5625 -9.175781 8.53125 -7.15625 C 8.507812 -5.132812 8.519531 -3.96875 8.5625 -3.65625 C 8.664062 -2.988281 8.566406 -2.507812 8.265625 -2.21875 C 8.171875 -2.144531 8.097656 -2.101562 8.046875 -2.09375 C 8.003906 -2.09375 7.929688 -2.109375 7.828125 -2.140625 C 7.535156 -2.242188 7.304688 -2.703125 7.140625 -3.515625 C 7.066406 -3.890625 7.03125 -4.085938 7.03125 -4.109375 C 7.03125 -4.109375 7 -4.082031 6.9375 -4.03125 C 6.882812 -3.988281 6.804688 -3.914062 6.703125 -3.8125 C 6.609375 -3.707031 6.515625 -3.609375 6.421875 -3.515625 C 6.023438 -3.085938 5.648438 -2.757812 5.296875 -2.53125 C 5.054688 -2.351562 4.867188 -2.253906 4.734375 -2.234375 C 4.609375 -2.210938 4.335938 -2.203125 3.921875 -2.203125 C 3.421875 -2.203125 3.039062 -2.253906 2.78125 -2.359375 C 2.53125 -2.472656 2.257812 -2.71875 1.96875 -3.09375 C 1.5 -3.695312 1.238281 -4.429688 1.1875 -5.296875 C 1.132812 -6.171875 1.304688 -7.0625 1.703125 -7.96875 C 2.003906 -8.6875 2.390625 -9.265625 2.859375 -9.703125 C 3.328125 -10.140625 3.859375 -10.425781 4.453125 -10.5625 C 4.878906 -10.664062 5.285156 -10.660156 5.671875 -10.546875 C 6.066406 -10.441406 6.398438 -10.253906 6.671875 -9.984375 L 6.859375 -9.78125 L 6.9375 -10.765625 C 7 -11.421875 7.15625 -12.546875 7.40625 -14.140625 C 7.488281 -14.765625 7.59375 -15.144531 7.71875 -15.28125 Z M 7.71875 -15.28125 "/></g></g></g><g fill="#ff3131" fill-opacity="1"><g transform="translate(139.488311, 25.063788)"><g><path d="M 2.78125 -4.40625 C 2.957031 -4.476562 3.164062 -4.515625 3.40625 -4.515625 C 3.644531 -4.515625 3.84375 -4.476562 4 -4.40625 C 4.363281 -4.21875 4.546875 -3.851562 4.546875 -3.3125 C 4.546875 -2.820312 4.332031 -2.46875 3.90625 -2.25 C 3.75 -2.175781 3.597656 -2.132812 3.453125 -2.125 C 3.304688 -2.113281 3.226562 -2.109375 3.21875 -2.109375 C 2.96875 -2.109375 2.789062 -2.15625 2.6875 -2.25 C 2.425781 -2.382812 2.265625 -2.554688 2.203125 -2.765625 C 2.140625 -2.984375 2.109375 -3.164062 2.109375 -3.3125 C 2.109375 -3.476562 2.148438 -3.675781 2.234375 -3.90625 C 2.316406 -4.132812 2.5 -4.300781 2.78125 -4.40625 Z M 2.78125 -4.40625 "/></g></g></g></svg>